<svg width="14" height="15" viewBox="0 0 14 15" fill="none" xmlns="http://www.w3.org/2000/svg">
<path d="M5.63281 14.2578C5.96615 14.2578 6.22917 14.112 6.42188 13.8203L13.8047 2.19531C13.8724 2.08594 13.9219 1.98698 13.9531 1.89844C13.9844 1.80469 14 1.71094 14 1.61719C14 1.40365 13.9349 1.23177 13.8047 1.10156C13.6745 0.971354 13.5026 0.90625 13.2891 0.90625C13.1328 0.90625 13.0052 0.9375 12.9062 1C12.8073 1.05729 12.7109 1.15885 12.6172 1.30469L5.60156 12.4844L1.96094 7.71875C1.77344 7.46354 1.54948 7.33594 1.28906 7.33594C1.07031 7.33594 0.890625 7.40625 0.75 7.54688C0.609375 7.68229 0.539062 7.85677 0.539062 8.07031C0.539062 8.16406 0.557292 8.26042 0.59375 8.35938C0.630208 8.45312 0.6875 8.54688 0.765625 8.64062L4.82031 13.8047C5.05469 14.1068 5.32552 14.2578 5.63281 14.2578Z" fill="#E3FD52"/>
</svg>
