<svg width="96" height="96" viewBox="0 0 96 96" fill="none" xmlns="http://www.w3.org/2000/svg">
<g clip-path="url(#clip0_823_9)">
<rect width="96" height="95.9358" rx="21.3763" fill="#111111"/>
<path d="M13.9706 57.2834V38.6763H10.7263V57.2834H13.9706Z" fill="#E3FD52"/>
<path d="M14.8439 57.2834H18.7085L26.6761 44.7117V55.1603C26.6761 56.4007 27.6542 57.2834 28.7754 57.2834C29.4433 57.2834 30.0874 57.021 30.6361 56.1622L37.8881 44.7117V57.2834H41.1324V40.1554C41.1324 39.1773 40.5837 38.5332 39.7488 38.5332C39.0092 38.5332 38.3413 38.8195 37.8881 39.5113L29.9204 51.4866V40.1554C29.9204 39.1773 29.3718 38.5332 28.5368 38.5332C27.845 38.5332 27.1294 38.8195 26.6761 39.5113L14.8439 57.2834Z" fill="#E3FD52"/>
<path d="M46.4221 57.2834V38.6763H43.1778V57.2834H46.4221Z" fill="#E3FD52"/>
<path d="M61.2507 57.2834H65.64L58.0541 46.8825L63.6123 38.6763H59.7478L51.7802 51.248V38.6763H48.5359V55.8044C48.5359 56.7824 49.0845 57.4027 49.9194 57.4027C50.6351 57.4027 51.3269 57.1641 51.7802 56.4484L56.1218 49.769L61.2507 57.2834Z" fill="#E3FD52"/>
<path d="M75.7852 57.2834C81.248 57.2834 85.1603 53.1326 85.1603 47.789C85.1603 42.517 81.4627 38.6763 75.7852 38.6763H75.2365C69.6305 38.6763 65.8614 42.4455 65.8614 47.789C65.8614 53.1326 69.7498 57.2834 75.2365 57.2834H75.7852ZM75.7852 41.9206C79.3635 41.9206 81.9398 44.497 81.9398 48.0514C81.9398 51.4866 79.4589 54.0391 75.7852 54.0391H75.2365C71.6105 54.0391 69.0819 51.5581 69.0819 48.0514C69.0819 44.4493 71.7059 41.9206 75.2365 41.9206H75.7852Z" fill="#E3FD52"/>
</g>
<defs>
<clipPath id="clip0_823_9">
<rect width="96" height="96" fill="white"/>
</clipPath>
</defs>
</svg>
