<svg width="14" height="8" viewBox="0 0 14 8" fill="none" xmlns="http://www.w3.org/2000/svg">
<path opacity="0.5" d="M0.640625 6.64844C0.572917 6.71094 0.520833 6.78646 0.484375 6.875C0.447917 6.96354 0.429688 7.05729 0.429688 7.15625C0.429688 7.29167 0.460938 7.41406 0.523438 7.52344C0.585938 7.6276 0.669271 7.71094 0.773438 7.77344C0.882812 7.83594 1.00521 7.86719 1.14062 7.86719C1.35417 7.86719 1.52344 7.79948 1.64844 7.66406L7.63281 1.55469H6.79688L12.7812 7.66406C12.9115 7.79948 13.0807 7.86719 13.2891 7.86719C13.4245 7.86719 13.5443 7.83594 13.6484 7.77344C13.7578 7.71094 13.8438 7.6276 13.9062 7.52344C13.9688 7.41406 14 7.29167 14 7.15625C14 6.95312 13.9297 6.78385 13.7891 6.64844L7.74219 0.460938C7.67448 0.388021 7.59375 0.330729 7.5 0.289062C7.41146 0.247396 7.31771 0.226562 7.21875 0.226562C7.01042 0.226562 6.83333 0.304688 6.6875 0.460938L0.640625 6.64844Z" fill="white"/>
</svg>
